TITLE en_ulb_psa_c117
FILE "en_ulb_psa_c117.mp3" MP3
  TRACK 01 AUDIO
    TITLE orature-chapter-117
    INDEX 01 00:00:00
  TRACK 02 AUDIO
    TITLE orature-vm-1
    INDEX 01 00:02:53
  TRACK 03 AUDIO
    TITLE orature-vm-2
    INDEX 01 00:07:47
